<svg width="139" height="149" viewBox="0 0 139 149" fill="none" xmlns="http://www.w3.org/2000/svg">
<rect width="138.919" height="147.535" fill="black" fill-opacity="0" transform="translate(0.0679932 0.966858)"/>
<path d="M124.976 53.7334C122.186 48.8947 124.511 41.2893 124.511 36.0275C124.511 24.3292 110.39 10.8087 95.4662 12.2353C82.2111 13.5023 74.3173 23.5982 59.8577 22.1097C44.7863 20.041 44.6874 10.893 24.7661 11.0009C18.6106 11.0343 6.85476 13.1485 3.70593 20.8754C-7.9787 49.5483 22.4923 56.3722 26.5233 76.3978C30.7181 97.237 21.3422 159.167 74.5353 131.452C85.0972 125.949 95.688 115.351 106.345 110.022C122.982 101.703 138 97.5012 138 79.2281C138 66.9514 130.953 64.0955 124.976 53.7334Z" fill="#D76DFF"/>
<path d="M85.6154 131.803C90.6788 129.444 98.0527 132.424 103.294 132.883C114.948 133.902 129.648 121.013 129.528 106.022C129.421 92.7068 120.051 83.963 122.794 69.6883C126.169 54.8545 135.29 55.5532 136.919 35.6984C137.422 29.5634 136.341 17.668 128.918 13.8577C101.372 -0.281452 91.9187 29.4788 71.618 31.7491C50.4925 34.1117 -10.3844 19.374 12.5888 74.7802C17.1503 85.7815 26.7853 97.2557 31.1649 108.337C38.0018 125.635 40.879 140.962 59.0826 142.555C71.3126 143.625 74.7717 136.854 85.6154 131.803Z" fill="#FF3188" style="mix-blend-mode:multiply"/>
</svg>
