<svg width="100" height="75" viewBox="0 0 100 75" fill="none" xmlns="http://www.w3.org/2000/svg">
<path d="M44.0467 55.7326C44.0467 61.5256 42.149 66.2199 38.3536 69.8155C34.5582 73.2114 29.764 74.9094 23.971 74.9094C16.9795 74.9094 11.1865 72.6121 6.59202 68.0177C2.19734 63.4233 0 56.8312 0 48.2416C0 39.0527 2.59686 30.0636 7.79057 21.2743C13.184 12.2851 20.675 5.19372 30.2634 0L37.155 10.4873C31.9613 14.083 27.7664 18.0781 24.5703 22.4728C21.5739 26.8675 19.5763 31.9613 18.5775 37.7543C20.3753 36.9553 22.4728 36.5558 24.8699 36.5558C30.4631 36.5558 35.0576 38.3536 38.6532 41.9492C42.2489 45.5449 44.0467 50.1393 44.0467 55.7326ZM99.18 55.7326C99.18 61.5256 97.2823 66.2199 93.4869 69.8155C89.6915 73.2114 84.8973 74.9094 79.1043 74.9094C72.1127 74.9094 66.3198 72.6121 61.7253 68.0177C57.3306 63.4233 55.1333 56.8312 55.1333 48.2416C55.1333 39.0527 57.7302 30.0636 62.9239 21.2743C68.3173 12.2851 75.8083 5.19372 85.3967 0L92.2883 10.4873C87.0946 14.083 82.8997 18.0781 79.7036 22.4728C76.7072 26.8675 74.7096 31.9613 73.7108 37.7543C75.5086 36.9553 77.6061 36.5558 80.0032 36.5558C85.5964 36.5558 90.1909 38.3536 93.7865 41.9492C97.3822 45.5449 99.18 50.1393 99.18 55.7326Z" fill="#FFE48F"/>
</svg>
