<svg width="100" height="75" viewBox="0 0 100 75" fill="none" xmlns="http://www.w3.org/2000/svg">
<path d="M55.1333 19.1768C55.1333 13.3838 57.031 8.78936 60.8264 5.39346C64.6218 1.79782 69.416 0 75.209 0C82.2005 0 87.8936 2.29722 92.2883 6.89167C96.8828 11.4861 99.18 18.0781 99.18 26.6677C99.18 35.8566 96.4833 44.9456 91.0898 53.9347C85.8961 62.7241 78.505 69.7157 68.9166 74.9094L62.025 64.4221C67.2187 60.8264 71.3137 56.8312 74.3101 52.4366C77.5062 48.0419 79.6037 42.948 80.6025 37.155C78.8046 37.9541 76.7072 38.3536 74.3101 38.3536C68.7169 38.3536 64.1224 36.5558 60.5268 32.9601C56.9311 29.3645 55.1333 24.77 55.1333 19.1768ZM0 19.1768C0 13.3838 1.8977 8.78936 5.69311 5.39346C9.48852 1.79782 14.2827 0 20.0757 0C27.0672 0 32.7604 2.29722 37.155 6.89167C41.7495 11.4861 44.0467 18.0781 44.0467 26.6677C44.0467 35.8566 41.35 44.9456 35.9565 53.9347C30.7628 62.7241 23.3717 69.7157 13.7833 74.9094L6.89166 64.4221C12.0854 60.8264 16.1804 56.8312 19.1768 52.4366C22.3729 48.0419 24.4704 42.948 25.4692 37.155C23.6714 37.9541 21.5739 38.3536 19.1768 38.3536C13.5836 38.3536 8.98913 36.5558 5.39348 32.9601C1.79783 29.3645 0 24.77 0 19.1768Z" fill="#FFE48F"/>
</svg>
